<mxfile host="app.diagrams.net" modified="2023-04-12T10:18:56.191Z" agent="Mozilla/5.0 (Macintosh; Intel Mac OS X 10_15_7) AppleWebKit/537.36 (KHTML, like Gecko) Chrome/111.0.0.0 Safari/537.36" etag="dnIKrBZqY5D5DhV_FjQr" version="21.1.2" type="github">
  <diagram name="第 1 页" id="HnLA0iK5u7M0LIpmThlC">
    <mxGraphModel dx="2593" dy="1826" grid="0" gridSize="10" guides="1" tooltips="1" connect="1" arrows="1" fold="1" page="0" pageScale="1" pageWidth="827" pageHeight="1169" math="0" shadow="0">
      <root>
        <mxCell id="0" />
        <mxCell id="1" parent="0" />
        <mxCell id="bGtvgYtZ9g5ODsRe4ldx-2" value="" style="rounded=0;whiteSpace=wrap;html=1;fontSize=16;" vertex="1" parent="1">
          <mxGeometry x="-680" y="-300" width="785" height="550" as="geometry" />
        </mxCell>
        <mxCell id="bGtvgYtZ9g5ODsRe4ldx-3" value="" style="shape=stencil(lVjZUlsxDP2avGpkW170TOl/MEMomVLCAN3+vrrNOMRy7gl5CxcdW+uRrE26eXu8e9luIr+9v+6/b3/v7t8fN+nLJsbd8+P2dfduvzbpdpNuHvav22+v+5/P94e/X+4WyeXXj/2v5YQ/B1xgCnFBRf57+MIUw/8PXw/yT7vnU/lArTp5LkBeKAUvz0C+Ui1XnB8jiddHgP6xUR7PDxTbunwqxDLIR9K0Li/i9c+UwflZKI76K6W6Ll8SaRv1txPiOqAmSnkEKKmuA1og5dHiQhkBlOJockrUQAw0E485IQEarY2qAyhxBlnExyw7hqFQuXDFWAdFiEGgVUhHq2sgRm5qpGMm1UpNAIB7nDqgCbzBFJAxNyw0yOjC1EajzSoB1WZuL6MN5rcAyjk1ktGGk9CcL9Dq/apKGbgptEkny1eUHMHnhhoHAL9mT2EWhwBKLlAZK65mEmDBlKslUwWcYZQ9np9zJ50VfRxlS6EA9BEqo71GggJKoXnKsy+whyR/wcLiKMSJqnhAwgDPYbHz7Fqb4jYB0A3iSe/yDRInG4BXDZDzVV6yuE03ZKxSmdxaUeCmzDBAw90/TwAFqb2MC2OuxtQjsxoH9oCA3cpxAuBcankCoBHG0lsnGxBfpD4inHoJ35CnSFcU6XOAcq1KguIwGx1hT1/cOiUfYuEzgTMA4vk5NS4CfPLFTv2fT29BgbMCmlTKKA7nShS19AWQphK9YMNEM4pp5jqAUnM2N9jQsx/2rP0UUNHRj0nW3iJsh27izrjdBv9CsvZc0JPET5LW/gOQL16flnrQ1+aXOgZAGRez+uZmE3gFAAsQT2NeAZVjY16chjY0ItkgGccga4Xt00ZV/04yL4GoVe5pf3SrDeDABhu3HV1YHAQBmickG+gTMNo0VgfgPticB1RPFyXBxmBhamOk7dmDcnu5Ycwlwe9PeyC41LC3G3zFNEqjSkn6l7X3Z3CkWuEoVqO3wSZkNMaYEx3PhwzfJDn5ilvWJqBXifhHd4GjW7J6HFnbuiOivObPj3AJsPQxv/WAzbn6gTtc3PL48xlRWPRPnoBnMO4ZcLK1wfKsV8irf5qHzgWf62hYe/WjEXam+qJnyFvq2zHDejw+pj/EUa2oX5cx3AWpf4JwX8+tiFe/HITk04viZFcJlVG/GryQNNetQi/K24+PvevD7unpsLY9/b/f09qnw4433f4D);lineShape=1;fontSize=16;" vertex="1" parent="1">
          <mxGeometry x="-582.462671326773" y="-491.03248472031623" width="277.02510645613387" height="348.3002693818251" as="geometry" />
        </mxCell>
      </root>
    </mxGraphModel>
  </diagram>
</mxfile>
